<svg width="725" height="105" viewBox="0 0 725 105" fill="none" xmlns="http://www.w3.org/2000/svg">
<path d="M0 11.7757C0 5.27216 5.37258 0 12 0H51V105H12C5.37258 105 0 99.7278 0 93.2243V11.7757Z" fill="url(#paint0_linear_12_76)"/>
<path d="M105 11.7757C105 5.27216 99.6274 0 93 0H82V105H93C99.6274 105 105 99.7278 105 93.2243V11.7757Z" fill="#FFC301"/>
<path d="M63 0H74V105H63V0Z" fill="#FFC301"/>
<path d="M51 0H57V105H51V0Z" fill="#FFC301"/>
<path d="M197.944 48.0029L178.257 49.2156C177.921 47.5313 177.197 46.0154 176.087 44.668C174.976 43.2868 173.512 42.192 171.695 41.3835C169.911 40.5414 167.775 40.1203 165.284 40.1203C161.953 40.1203 159.143 40.8277 156.854 42.2425C154.566 43.6237 153.422 45.4764 153.422 47.8008C153.422 49.6535 154.162 51.2199 155.643 52.5C157.124 53.7801 159.664 54.8075 163.265 55.5823L177.298 58.4119C184.836 59.9615 190.456 62.4543 194.158 65.8903C197.86 69.3263 199.711 73.8402 199.711 79.4321C199.711 84.5188 198.213 88.9822 195.218 92.8224C192.257 96.6627 188.185 99.6607 183.002 101.817C177.853 103.939 171.914 105 165.183 105C154.919 105 146.742 102.861 140.651 98.5828C134.594 94.2709 131.043 88.4095 130 80.9986L151.15 79.8869C151.79 83.0197 153.338 85.4115 155.794 87.0621C158.251 88.679 161.397 89.4875 165.234 89.4875C169.003 89.4875 172.032 88.7632 174.32 87.3147C176.642 85.8325 177.82 83.9293 177.853 81.6049C177.82 79.6511 176.995 78.051 175.38 76.8046C173.765 75.5245 171.274 74.5476 167.909 73.8739L154.482 71.1959C146.91 69.68 141.273 67.0525 137.572 63.3133C133.904 59.5741 132.07 54.8075 132.07 49.0135C132.07 44.0279 133.416 39.7329 136.108 36.1285C138.834 32.5241 142.653 29.7449 147.566 27.7911C152.513 25.8373 158.301 24.8604 164.931 24.8604C174.724 24.8604 182.43 26.9321 188.05 31.0756C193.704 35.219 197.001 40.8614 197.944 48.0029Z" fill="white"/>
<path d="M248.586 105C240.611 105 233.745 103.383 227.991 100.149C222.27 96.8816 217.862 92.2666 214.766 86.3041C211.67 80.308 210.122 73.217 210.122 65.0313C210.122 57.0476 211.67 50.0409 214.766 44.0111C217.862 37.9812 222.22 33.282 227.84 29.9134C233.493 26.5448 240.123 24.8604 247.728 24.8604C252.843 24.8604 257.605 25.6858 262.013 27.3364C266.455 28.9533 270.325 31.3956 273.623 34.6631C276.955 37.9307 279.546 42.0404 281.397 46.9923C283.248 51.9105 284.173 57.6708 284.173 64.2733V70.1853H218.703V56.8455H263.931C263.931 53.7464 263.258 51.001 261.912 48.6092C260.566 46.2175 258.699 44.3479 256.309 43.0005C253.954 41.6193 251.211 40.9288 248.081 40.9288C244.817 40.9288 241.923 41.6867 239.399 43.2026C236.909 44.6848 234.957 46.6891 233.544 49.2156C232.13 51.7084 231.407 54.4875 231.373 57.5529V70.2358C231.373 74.076 232.08 77.3941 233.493 80.1901C234.94 82.986 236.976 85.142 239.601 86.6578C242.226 88.1737 245.339 88.9317 248.939 88.9317C251.329 88.9317 253.516 88.5948 255.502 87.9211C257.487 87.2474 259.187 86.2368 260.6 84.8893C262.013 83.5419 263.09 81.8912 263.831 79.9374L283.719 81.2512C282.709 86.0347 280.64 90.2117 277.51 93.7825C274.414 97.3195 270.41 100.082 265.496 102.069C260.617 104.023 254.98 105 248.586 105Z" fill="white"/>
<path d="M319.71 58.6141V103.484H298.206V25.871H318.7V39.5645H319.609C321.325 35.0505 324.203 31.4798 328.241 28.8523C332.279 26.1911 337.175 24.8604 342.93 24.8604C348.314 24.8604 353.009 26.0395 357.013 28.3975C361.018 30.7555 364.131 34.1242 366.352 38.5034C368.573 42.8489 369.683 48.0366 369.683 54.0664V103.484H348.18V57.9066C348.213 53.1569 347.002 49.4514 344.545 46.7902C342.089 44.0953 338.707 42.7478 334.399 42.7478C331.505 42.7478 328.948 43.371 326.726 44.6174C324.539 45.8638 322.823 47.6829 321.578 50.0746C320.366 52.4326 319.744 55.2791 319.71 58.6141Z" fill="white"/>
<path d="M415.202 104.747C409.313 104.747 403.979 103.231 399.201 100.2C394.456 97.1343 390.687 92.6372 387.894 86.7084C385.134 80.7459 383.754 73.436 383.754 64.7786C383.754 55.8855 385.184 48.4913 388.045 42.5962C390.905 36.6675 394.708 32.2377 399.453 29.307C404.232 26.3426 409.465 24.8604 415.152 24.8604C419.493 24.8604 423.111 25.6015 426.005 27.0837C428.932 28.5322 431.288 30.3513 433.072 32.5409C434.889 34.6968 436.269 36.8191 437.211 38.9076H437.867V0H459.32V103.484H438.119V91.0539H437.211C436.201 93.2098 434.771 95.3489 432.92 97.4711C431.103 99.5597 428.73 101.295 425.803 102.676C422.909 104.057 419.375 104.747 415.202 104.747ZM422.017 87.6179C425.483 87.6179 428.411 86.6747 430.8 84.7883C433.223 82.8681 435.074 80.1901 436.353 76.7541C437.665 73.3181 438.321 69.2926 438.321 64.6776C438.321 60.0626 437.682 56.0539 436.403 52.6516C435.124 49.2493 433.273 46.6218 430.851 44.769C428.428 42.9163 425.483 41.9899 422.017 41.9899C418.483 41.9899 415.505 42.95 413.082 44.8701C410.659 46.7902 408.825 49.4514 407.58 52.8537C406.335 56.256 405.712 60.1973 405.712 64.6776C405.712 69.1915 406.335 73.1833 407.58 76.653C408.859 80.089 410.693 82.7839 413.082 84.7377C415.505 86.6578 418.483 87.6179 422.017 87.6179Z" fill="white"/>
<path d="M512.032 105C504.191 105 497.41 103.333 491.689 99.9976C486.002 96.629 481.611 91.9466 478.515 85.9504C475.419 79.9206 473.871 72.9307 473.871 64.9808C473.871 56.9634 475.419 49.9567 478.515 43.9605C481.611 37.9307 486.002 33.2483 491.689 29.9134C497.41 26.5448 504.191 24.8604 512.032 24.8604C519.873 24.8604 526.637 26.5448 532.324 29.9134C538.045 33.2483 542.454 37.9307 545.55 43.9605C548.646 49.9567 550.194 56.9634 550.194 64.9808C550.194 72.9307 548.646 79.9206 545.55 85.9504C542.454 91.9466 538.045 96.629 532.324 99.9976C526.637 103.333 519.873 105 512.032 105ZM512.133 88.3253C515.7 88.3253 518.679 87.3147 521.068 85.2936C523.457 83.2387 525.258 80.4427 526.469 76.9057C527.714 73.3686 528.337 69.3431 528.337 64.8292C528.337 60.3152 527.714 56.2897 526.469 52.7526C525.258 49.2156 523.457 46.4196 521.068 44.3648C518.679 42.3099 515.7 41.2825 512.133 41.2825C508.532 41.2825 505.504 42.3099 503.047 44.3648C500.624 46.4196 498.79 49.2156 497.545 52.7526C496.333 56.2897 495.728 60.3152 495.728 64.8292C495.728 69.3431 496.333 73.3686 497.545 76.9057C498.79 80.4427 500.624 83.2387 503.047 85.2936C505.504 87.3147 508.532 88.3253 512.133 88.3253Z" fill="white"/>
<path d="M599.208 105C591.367 105 584.586 103.333 578.865 99.9976C573.178 96.629 568.787 91.9466 565.691 85.9504C562.595 79.9206 561.047 72.9307 561.047 64.9808C561.047 56.9634 562.595 49.9567 565.691 43.9605C568.787 37.9307 573.178 33.2483 578.865 29.9134C584.586 26.5448 591.367 24.8604 599.208 24.8604C607.049 24.8604 613.813 26.5448 619.5 29.9134C625.221 33.2483 629.63 37.9307 632.726 43.9605C635.822 49.9567 637.37 56.9634 637.37 64.9808C637.37 72.9307 635.822 79.9206 632.726 85.9504C629.63 91.9466 625.221 96.629 619.5 99.9976C613.813 103.333 607.049 105 599.208 105ZM599.309 88.3253C602.876 88.3253 605.855 87.3147 608.244 85.2936C610.633 83.2387 612.433 80.4427 613.645 76.9057C614.89 73.3686 615.513 69.3431 615.513 64.8292C615.513 60.3152 614.89 56.2897 613.645 52.7526C612.433 49.2156 610.633 46.4196 608.244 44.3648C605.855 42.3099 602.876 41.2825 599.309 41.2825C595.708 41.2825 592.68 42.3099 590.223 44.3648C587.8 46.4196 585.966 49.2156 584.721 52.7526C583.509 56.2897 582.904 60.3152 582.904 64.8292C582.904 69.3431 583.509 73.3686 584.721 76.9057C585.966 80.4427 587.8 83.2387 590.223 85.2936C592.68 87.3147 595.708 88.3253 599.309 88.3253Z" fill="white"/>
<path d="M670.837 81.1501L670.887 55.3296H674.017L698.852 25.871H723.536L690.17 64.8797H685.072L670.837 81.1501ZM651.352 103.484V0H672.856V103.484H651.352ZM699.811 103.484L676.995 69.68L691.331 54.4706L725 103.484H699.811Z" fill="white"/>
<defs>
<linearGradient id="paint0_linear_12_76" x1="0" y1="52.5" x2="105" y2="52.5" gradientUnits="userSpaceOnUse">
<stop stop-color="#FFFFFF" stop-opacity="0.25"/>
<stop offset="1" stop-color="#FFFFFF" stop-opacity="0"/>
</linearGradient>
</defs>
</svg>
